<svg id="SvgjsSvg1055" width="239.91432095334713" height="147" xmlns="http://www.w3.org/2000/svg" version="1.1" xmlns:xlink="http://www.w3.org/1999/xlink" xmlns:svgjs="http://svgjs.com/svgjs" overflow="visible">
    <defs id="SvgjsDefs1056"></defs>
    <g id="SvgjsG1057" fill="#436773">
        <defs id="SvgjsDefs1046"></defs>
        <g id="SvgjsG1047" transform="scale(0.6994790546469201)" opacity="1">
            <g id="SvgjsG1048" class="Ll0WbdI79" transform="translate(109.7568, 0) scale(1.234764)" light-content="false" fill="#436773">
                <rect width="100" height="100" rx="10"></rect>
            </g>
            <g id="SvgjsG1049" class="duFPsFdDPG" transform="translate(137.90942944950274, 28.152639511884956) scale(0.6717114110099455)" light-content="true" fill="#33cc78">
                <path d="M72 27c-7.769 0-13.387 4.513-17.002 8.865C54.95 14.95 44 3 44 3l-8 6s8.948 9.946 8.998 26.859C41.382 31.509 35.766 27 28 27 14 27 5 36 5 50c0 25 45 50 45 50s45-25 45-50c0-14-9-23-23-23z"></path>
                <path d="M83 0C66.983-.018 59 8 59 24c15.999 0 24.017-8.018 24-24z"></path>
            </g>
            <g id="SvgjsG1050" class="text" transform="translate(170.55999755859375, 196.95639954223634) scale(1)" light-content="false" fill="#436773">
                <path d="M-164.49 0.08C-162.56 0.38 -160.68 0.54 -158.86 0.54C-153.85 0.54 -149.98 -0.51 -147.25 -2.61C-144.53 -4.71 -143.18 -7.71 -143.18 -11.61C-143.18 -14.75 -144.17 -17.26 -146.16 -19.14C-148.15 -21.02 -151.34 -22.45 -155.74 -23.43L-157.87 -23.91C-160.32 -24.47 -162.25 -25.14 -163.68 -25.92C-165.11 -26.7 -166.15 -27.67 -166.78 -28.84C-167.42 -30.01 -167.74 -31.48 -167.74 -33.24C-167.75 -36.22 -166.7 -38.5 -164.61 -40.08C-162.52 -41.66 -159.42 -42.45 -155.29 -42.45C-151.72 -42.45 -148.3 -41.93 -145.03 -40.89L-145.03 -43.47C-146.57 -43.95 -148.22 -44.31 -149.97 -44.56C-151.72 -44.82 -153.47 -44.94 -155.23 -44.94C-158.57 -44.94 -161.39 -44.46 -163.68 -43.5C-165.97 -42.54 -167.69 -41.17 -168.84 -39.4C-169.99 -37.63 -170.56 -35.52 -170.56 -33.06C-170.56 -29.92 -169.6 -27.4 -167.67 -25.48C-165.74 -23.57 -162.76 -22.17 -158.71 -21.27L-156.58 -20.79C-154 -20.21 -151.96 -19.54 -150.43 -18.76C-148.91 -18 -147.79 -17.03 -147.07 -15.87C-146.35 -14.71 -145.99 -13.25 -145.99 -11.49C-145.99 -8.35 -147.07 -5.98 -149.2 -4.36C-151.34 -2.76 -154.54 -1.95 -158.8 -1.95C-162.5 -1.95 -166.23 -2.58 -169.99 -3.84L-169.99 -1.29C-168.25 -0.69 -166.42 -0.23 -164.49 0.08Z M-118.36 -2.55C-120.14 -2.15 -121.67 -1.95 -122.95 -1.95C-125.64 -1.95 -127.65 -2.62 -128.99 -3.96C-130.32 -5.3 -130.99 -7.47 -130.99 -10.47L-130.99 -30.03L-119.02 -30.03L-119.02 -32.43L-130.99 -32.43L-130.99 -44.4L-133.33 -44.4L-133.69 -32.43L-140.5 -32.43L-140.5 -30.03L-133.69 -30.03L-133.69 -9.99C-133.69 -6.41 -132.81 -3.76 -131.02 -2.04C-129.24 -0.32 -126.66 0.54 -123.28 0.54C-121.66 0.54 -120.02 0.35 -118.36 -0.03Z M-96.67 -31.89C-98.41 -32.57 -100.6 -32.91 -103.24 -32.91C-104.86 -32.91 -106.52 -32.78 -108.21 -32.52C-109.9 -32.26 -111.4 -31.88 -112.69 -31.38L-112.69 -28.89C-111.13 -29.45 -109.56 -29.86 -107.95 -30.1C-106.35 -30.35 -104.82 -30.48 -103.36 -30.48C-101.24 -30.48 -99.51 -30.23 -98.16 -29.74C-96.81 -29.26 -95.78 -28.39 -95.08 -27.16C-94.39 -25.93 -94.03 -24.22 -94.03 -22.02L-94.03 -18.45L-103.09 -17.37C-107.11 -16.91 -110.04 -15.93 -111.85 -14.43C-113.68 -12.93 -114.58 -10.82 -114.58 -8.1C-114.58 -5.4 -113.71 -3.29 -111.94 -1.78C-110.19 -0.28 -107.74 0.48 -104.59 0.48C-102.52 0.48 -100.54 0.09 -98.68 -0.69C-96.82 -1.47 -95.32 -2.53 -94.15 -3.87L-93.91 -3.87L-93.67 0L-91.33 0L-91.33 -22.02C-91.33 -24.72 -91.79 -26.87 -92.7 -28.47C-93.61 -30.07 -94.93 -31.21 -96.67 -31.89ZM-98.74 -3.09C-100.52 -2.29 -102.37 -1.89 -104.29 -1.89C-106.77 -1.89 -108.63 -2.44 -109.87 -3.54C-111.11 -4.64 -111.73 -6.23 -111.73 -8.31C-111.73 -10.31 -111.06 -11.85 -109.71 -12.93C-108.36 -14.01 -106.14 -14.73 -103.06 -15.09L-94.03 -16.17L-94.03 -6.69C-95.39 -5.09 -96.97 -3.89 -98.74 -3.09Z M-57.76 -32.43L-70.24 -2.13L-82.6 -32.43L-85.57 -32.43L-72.07 0L-71.26 0L-76.75 13.2L-73.96 13.2L-54.97 -32.43Z M-32.68 0L-29.95 0L-29.95 -21.54L-2.33 -21.54L-2.33 0L0.38 0L0.38 -44.4L-2.33 -44.4L-2.33 -24.09L-29.95 -24.09L-29.95 -44.4L-32.68 -44.4Z M35.32 -15.15L35.32 -16.2C35.32 -21.8 34.24 -25.99 32.08 -28.75C29.92 -31.53 26.81 -32.91 22.76 -32.91C18.67 -32.91 15.49 -31.51 13.2 -28.72C10.91 -25.93 9.76 -21.77 9.76 -16.23C9.76 -10.49 11.05 -6.26 13.62 -3.54C16.19 -0.82 19.94 0.54 24.89 0.54C27.76 0.54 30.74 0.05 33.8 -0.93L33.8 -3.45C30.52 -2.41 27.62 -1.89 25.1 -1.89C21.08 -1.89 18.01 -2.94 15.9 -5.05C13.79 -7.17 12.68 -10.53 12.55 -15.15ZM15.31 -27.42C17.06 -29.52 19.53 -30.57 22.73 -30.57C25.9 -30.57 28.33 -29.53 29.99 -27.43C31.64 -25.34 32.52 -22.02 32.63 -17.46L12.55 -17.46C12.65 -22 13.57 -25.32 15.31 -27.42Z M59.24 -31.89C57.5 -32.57 55.31 -32.91 52.67 -32.91C51.05 -32.91 49.39 -32.78 47.7 -32.52C46.01 -32.26 44.51 -31.88 43.22 -31.38L43.22 -28.89C44.78 -29.45 46.35 -29.86 47.96 -30.1C49.56 -30.35 51.09 -30.48 52.55 -30.48C54.67 -30.48 56.4 -30.23 57.75 -29.74C59.1 -29.26 60.13 -28.39 60.83 -27.16C61.52 -25.93 61.88 -24.22 61.88 -22.02L61.88 -18.45L52.82 -17.37C48.8 -16.91 45.87 -15.93 44.06 -14.43C42.23 -12.93 41.33 -10.82 41.33 -8.1C41.33 -5.4 42.2 -3.29 43.97 -1.78C45.72 -0.28 48.17 0.48 51.32 0.48C53.39 0.48 55.37 0.09 57.23 -0.69C59.09 -1.47 60.59 -2.53 61.76 -3.87L62 -3.87L62.24 0L64.58 0L64.58 -22.02C64.58 -24.72 64.12 -26.87 63.21 -28.47C62.3 -30.07 60.98 -31.21 59.24 -31.89ZM57.17 -3.09C55.39 -2.29 53.54 -1.89 51.62 -1.89C49.14 -1.89 47.28 -2.44 46.04 -3.54C44.8 -4.64 44.18 -6.23 44.18 -8.31C44.18 -10.31 44.85 -11.85 46.2 -12.93C47.55 -14.01 49.77 -14.73 52.85 -15.09L61.88 -16.17L61.88 -6.69C60.52 -5.09 58.94 -3.89 57.17 -3.09Z M74.81 0L77.51 0L77.51 -48.48L74.81 -48.48Z M105.34 -2.55C103.57 -2.15 102.04 -1.95 100.76 -1.95C98.07 -1.95 96.06 -2.62 94.73 -3.96C93.39 -5.3 92.71 -7.47 92.71 -10.47L92.71 -30.03L104.68 -30.03L104.68 -32.43L92.71 -32.43L92.71 -44.4L90.37 -44.4L90.01 -32.43L83.2 -32.43L83.2 -30.03L90.01 -30.03L90.01 -9.99C90.01 -6.41 90.9 -3.76 92.68 -2.04C94.47 -0.32 97.05 0.54 100.43 0.54C102.04 0.54 103.69 0.35 105.34 -0.03Z M110.99 -48.48L110.99 0L113.69 0L113.69 -25.32C115.13 -27.02 116.84 -28.28 118.82 -29.1C120.8 -29.92 122.81 -30.33 124.85 -30.33C127.58 -30.33 129.69 -29.65 131.16 -28.27C132.63 -26.9 133.37 -24.64 133.37 -21.48L133.37 0L136.07 0L136.07 -21.57C136.07 -25.53 135.11 -28.41 133.2 -30.21C131.29 -32.01 128.63 -32.91 125.21 -32.91C123.02 -32.91 120.97 -32.55 119.04 -31.83C117.11 -31.11 115.4 -30.04 113.9 -28.62L113.69 -28.62L113.69 -48.48Z M169.64 -32.43L157.16 -2.13L144.79 -32.43L141.82 -32.43L155.32 0L156.14 0L150.65 13.2L153.44 13.2L172.43 -32.43Z"></path>
            </g>
        </g>
    </g>
</svg>