<svg id="SvgjsSvg1055" width="239.91432095334713" height="147" xmlns="http://www.w3.org/2000/svg" version="1.1" xmlns:xlink="http://www.w3.org/1999/xlink" xmlns:svgjs="http://svgjs.com/svgjs" overflow="visible">
    <defs id="SvgjsDefs1056"></defs>
    <g id="SvgjsG1057" fill="#436773">
        <defs id="SvgjsDefs1046"></defs>
        <g id="SvgjsG1047" transform="scale(0.6994790546469201)" opacity="1">
            <g id="SvgjsG1048" class="Ll0WbdI79" transform="translate(109.7568, 0) scale(1.234764)" light-content="false" fill="#436773">
                <rect width="100" height="100" rx="10"></rect>
            </g>
            <g id="SvgjsG1049" class="duFPsFdDPG" transform="translate(137.90942944950274, 28.152639511884956) scale(0.6717114110099455)" light-content="true" fill="#33cc78">
                <path d="M72 27c-7.769 0-13.387 4.513-17.002 8.865C54.95 14.95 44 3 44 3l-8 6s8.948 9.946 8.998 26.859C41.382 31.509 35.766 27 28 27 14 27 5 36 5 50c0 25 45 50 45 50s45-25 45-50c0-14-9-23-23-23z"></path>
                <path d="M83 0C66.983-.018 59 8 59 24c15.999 0 24.017-8.018 24-24z"></path>
            </g>
        </g>
    </g>
</svg>